<?xml version="1.0" standalone="no"?>
<!DOCTYPE svg PUBLIC "-//W3C//DTD SVG 20010904//EN"
 "http://www.w3.org/TR/2001/REC-SVG-20010904/DTD/svg10.dtd">
<svg version="1.0" xmlns="http://www.w3.org/2000/svg"
 width="203.000000pt" height="153.000000pt" viewBox="0 0 203.000000 153.000000"
 preserveAspectRatio="xMidYMid meet">

<g transform="translate(0.000000,153.000000) scale(0.100000,-0.100000)"
fill="#000000" stroke="none">
<path d="M1770 1276 c0 -2 12 -29 26 -61 23 -50 26 -67 22 -134 -3 -50 -12
-91 -26 -120 -12 -25 -22 -49 -22 -53 0 -5 17 -8 38 -6 36 3 38 5 60 68 28 82
26 191 -6 263 -19 43 -24 47 -56 47 -20 0 -36 -2 -36 -4z"/>
<path d="M1900 1276 c0 -2 11 -28 25 -58 39 -84 34 -170 -20 -301 -7 -16 -3
-18 31 -15 38 3 39 4 62 68 28 82 26 191 -6 263 -19 43 -24 47 -56 47 -20 0
-36 -2 -36 -4z"/>
<path d="M137 524 c-4 -4 -7 -54 -7 -111 0 -114 -8 -129 -54 -100 -22 15 -25
14 -47 -9 l-24 -26 28 -24 c52 -44 152 -25 176 33 7 18 11 69 9 133 l-3 105
-35 3 c-20 2 -39 0 -43 -4z"/>
<path d="M296 393 c-32 -76 -61 -144 -63 -150 -4 -9 8 -13 41 -13 40 0 46 3
52 25 6 23 11 25 63 25 52 0 59 -3 69 -25 10 -21 19 -25 52 -25 25 0 40 5 40
13 -1 6 -27 73 -58 147 l-57 135 -41 3 -40 3 -58 -138z m120 -40 c-2 -3 -15
-3 -28 -1 -24 3 -24 4 -10 38 l14 35 14 -34 c8 -19 12 -36 10 -38z"/>
<path d="M587 523 c-4 -3 -7 -71 -7 -150 l0 -144 43 3 42 3 5 70 5 70 55 -72
c51 -67 58 -72 93 -73 l38 0 -3 148 -3 147 -37 3 -37 3 -3 -77 -3 -78 -59 77
c-52 68 -63 77 -91 77 -17 0 -35 -3 -38 -7z"/>
<path d="M954 520 c-31 -12 -54 -49 -54 -86 0 -40 42 -78 97 -89 21 -4 44 -11
50 -17 35 -29 -38 -39 -89 -12 -29 15 -31 15 -47 -8 -23 -33 -21 -41 19 -61
26 -13 51 -17 99 -14 55 3 67 7 87 31 51 58 22 122 -66 147 -51 14 -72 27 -64
40 8 13 48 11 80 -3 23 -11 28 -10 45 11 26 31 24 36 -15 55 -36 17 -107 20
-142 6z"/>
<path d="M1225 521 c-59 -25 -80 -107 -36 -142 13 -11 48 -26 77 -35 33 -9 54
-21 54 -30 0 -19 -53 -18 -91 2 -33 17 -50 10 -70 -28 -9 -16 -4 -21 33 -38
82 -37 181 -21 206 35 28 62 -1 103 -92 129 -35 10 -56 22 -53 29 6 18 42 20
75 3 28 -14 30 -14 51 14 11 16 21 31 21 34 0 2 -18 11 -40 20 -43 17 -102 20
-135 7z"/>
<path d="M1447 523 c-4 -3 -7 -71 -7 -150 l0 -143 120 0 120 0 0 40 0 40 -75
0 c-68 0 -75 2 -75 20 0 18 7 20 70 20 l70 0 0 30 0 30 -70 0 c-63 0 -70 2
-70 20 0 18 7 20 75 20 l75 0 0 40 0 40 -113 0 c-63 0 -117 -3 -120 -7z"/>
<path d="M1720 380 l0 -150 40 0 39 0 3 78 3 77 60 -78 c57 -73 62 -78 95 -75
l35 3 0 145 0 145 -40 0 -40 0 -5 -69 -5 -69 -50 64 c-59 77 -61 79 -102 79
l-33 0 0 -150z"/>
<path d="M12 68 l1 -73 6 60 6 60 23 -37 c13 -21 25 -38 27 -38 2 0 14 17 27
38 l23 37 6 -60 6 -60 1 73 c1 39 -1 72 -5 72 -5 0 -19 -17 -32 -37 l-24 -37
-23 30 c-13 16 -24 32 -24 37 0 4 -4 7 -10 7 -6 0 -9 -30 -8 -72z"/>
<path d="M196 75 c-16 -36 -26 -68 -23 -71 3 -3 8 4 12 15 9 30 79 30 95 0 7
-11 14 -19 16 -16 7 7 -53 137 -63 137 -4 0 -21 -30 -37 -65z m64 -12 c0 -8
-12 -13 -30 -13 l-30 0 17 35 c17 35 17 35 30 13 7 -13 12 -29 13 -35z"/>
<path d="M332 68 c0 -40 3 -58 5 -40 6 42 32 43 68 1 30 -37 45 -34 16 3 -20
24 -20 25 0 41 10 9 19 21 19 26 0 22 -34 41 -71 41 l-39 0 2 -72z m76 53 c8
-5 12 -17 10 -27 -2 -14 -13 -20 -41 -22 -35 -3 -37 -2 -37 27 0 27 3 31 28
31 15 0 33 -4 40 -9z"/>
<path d="M473 70 c0 -41 2 -65 4 -53 2 12 11 27 20 34 13 11 20 8 45 -20 16
-18 32 -31 34 -28 3 3 -8 20 -25 39 l-30 33 32 33 c17 17 26 32 21 32 -5 0
-28 -18 -49 -41 l-40 -40 -6 43 c-5 33 -6 26 -6 -32z"/>
<path d="M602 73 l3 -68 48 -3 c28 -2 47 1 47 7 0 6 -18 11 -40 11 -33 0 -40
3 -40 20 0 16 7 20 35 20 19 0 35 5 35 10 0 6 -16 10 -35 10 -30 0 -35 3 -35
24 0 22 5 25 43 29 40 3 39 4 -11 5 l-53 2 3 -67z"/>
<path d="M742 133 c26 -4 27 -7 31 -71 l3 -67 2 67 c2 64 3 67 30 71 15 2 0 4
-33 4 -33 0 -48 -2 -33 -4z"/>
<path d="M863 70 c0 -41 2 -58 4 -38 2 21 2 55 0 76 -2 20 -4 3 -4 -38z"/>
<path d="M912 68 l1 -73 6 60 6 59 34 -42 c18 -24 36 -41 38 -38 6 6 -69 105
-79 106 -5 0 -7 -33 -6 -72z"/>
<path d="M1008 78 c-4 -68 -2 -82 13 -73 12 8 12 135 0 135 -5 0 -11 -28 -13
-62z"/>
<path d="M1075 120 c-26 -29 -24 -79 4 -102 41 -33 101 -16 101 28 0 28 -21
40 -47 28 -16 -7 -15 -8 5 -11 28 -5 30 -39 2 -48 -32 -10 -70 20 -70 54 0 39
31 65 70 57 19 -3 29 -2 25 4 -11 18 -71 11 -90 -10z"/>
<path d="M1270 70 l0 -70 35 0 c41 0 85 36 85 70 0 34 -44 70 -85 70 l-35 0 0
-70z m78 44 c24 -17 30 -62 10 -82 -7 -7 -27 -12 -45 -12 l-33 0 0 55 c0 51 2
55 23 55 12 0 33 -7 45 -16z"/>
<path d="M1423 70 c0 -41 2 -58 4 -38 2 21 2 55 0 76 -2 20 -4 3 -4 -38z"/>
<path d="M1486 121 c-27 -30 -18 -91 16 -110 41 -23 82 -6 86 37 3 28 0 32
-22 32 -14 0 -28 -4 -31 -10 -4 -6 5 -10 19 -10 34 0 34 -27 1 -42 -19 -9 -29
-8 -50 6 -53 35 -18 115 45 102 19 -3 29 -2 25 4 -11 17 -71 11 -89 -9z"/>
<path d="M1620 76 c0 -36 5 -68 10 -71 6 -4 10 20 10 64 0 41 -4 71 -10 71 -6
0 -10 -28 -10 -64z"/>
<path d="M1683 133 c26 -4 27 -6 27 -69 0 -41 4 -63 10 -59 6 3 10 33 10 65 0
53 2 59 23 63 12 2 -5 4 -38 4 -33 0 -48 -2 -32 -4z"/>
<path d="M1802 74 c-18 -37 -31 -68 -28 -71 2 -3 9 5 16 16 15 29 86 30 95 1
3 -11 10 -20 16 -20 5 0 -3 26 -17 57 -14 32 -28 64 -31 71 -9 22 -18 13 -51
-54z m56 11 c16 -35 16 -35 -18 -35 -16 0 -30 2 -30 5 0 11 24 55 30 55 4 0
12 -11 18 -25z"/>
<path d="M1932 73 l3 -68 43 -3 c25 -2 42 1 42 7 0 6 -16 11 -35 11 l-35 0 0
60 c0 35 -4 60 -10 60 -7 0 -10 -25 -8 -67z"/>
</g>
</svg>
